<?xml version="1.0" encoding="UTF-8"?>
<svg version="1.1" xmlns="http://www.w3.org/2000/svg" width="500" height="334">
<path d="M0 0 C165 0 330 0 500 0 C500 110.22 500 220.44 500 334 C335 334 170 334 0 334 C0 223.78 0 113.56 0 0 Z " fill="#002867" transform="translate(0,0)"/>
<path d="M0 0 C165 0 330 0 500 0 C500 27.72 500 55.44 500 84 C335 84 170 84 0 84 C0 56.28 0 28.56 0 0 Z " fill="#CE1126" transform="translate(0,250)"/>
<path d="M0 0 C165 0 330 0 500 0 C500 27.39 500 54.78 500 83 C335 83 170 83 0 83 C0 55.61 0 28.22 0 0 Z " fill="#CE1126" transform="translate(0,0)"/>
<path d="M0 0 C0.99386719 0.3403125 1.98773438 0.680625 3.01171875 1.03125 C20.75894917 7.75747305 32.87261832 20.82551537 40.8125 37.75 C46.8990928 51.29422698 47.54951134 69.11208625 43.375 83.375 C42.63546873 85.2711684 41.84499758 87.14842224 41 89 C40.59910156 89.99386719 40.19820313 90.98773438 39.78515625 92.01171875 C36.03796641 100.49448764 30.49750874 106.56016146 24 113 C23.43796875 113.59554687 22.8759375 114.19109375 22.296875 114.8046875 C9.8911124 126.88398266 -8.27053848 130.51873518 -24.85375977 130.42016602 C-42.23585674 129.95527698 -56.8809354 122.26482655 -69 110 C-69.70898438 109.31292969 -70.41796875 108.62585938 -71.1484375 107.91796875 C-82.93960335 95.74279941 -87.59714351 79.86645812 -87.5 63.25 C-87.49427979 62.10909912 -87.48855957 60.96819824 -87.48266602 59.79272461 C-87.09281473 41.31219872 -79.21690974 26.76257846 -66 14 C-47.80939333 -1.9684587 -23.14860278 -8.02916572 0 0 Z " fill="#FEFEFE" transform="translate(271,103)"/>
</svg>
